<svg width="1920" height="625" viewBox="0 0 1920 625" fill="none" xmlns="http://www.w3.org/2000/svg">
<path fill-rule="evenodd" clip-rule="evenodd" d="M2568.91 264.854L2429.45 231.726C2290 198.598 2011.09 130.599 1732.18 163.727C1453.27 198.598 1174.36 331.109 895.455 297.981C616.546 264.854 337.636 64.344 58.7273 13.7807C-220.182 -36.7827 -499.091 64.344 -638.545 114.907L-778 163.727V767H-638.545C-499.091 767 -220.182 767 58.7273 767C337.636 767 616.546 767 895.455 767C1174.36 767 1453.27 767 1732.18 767C2011.09 767 2290 767 2429.45 767H2568.91V264.854Z" fill="#031227"/>
</svg>
